ffmpeg started on 2026-01-13 at 12:32:34
Report written to "D:\Convert\FFMetrics\reports\ssim_report-6.txt"
Log level: 32
Command line:
ffmpeg -hide_banner -nostdin -r 24000/1001 -i "F:\\Convert\\files\\[DC] Make Heroine ga Oosugiru - 07_Telegram_HEVC(96).mkv" -r 24000/1001 -i "F:\\Convert\\files\\[DC] Make Heroine ga Oosugiru - 07_Telegram.mp4" -lavfi "[0:v]settb=AVTB,setpts=PTS-STARTPTS,format=pix_fmts=yuv420p10le,fps=24000/1001,scale=1920:1080:flags=lanczos:param0=3:out_range=limited:out_color_matrix=bt709:out_chroma_loc=left,setsar=1/1,setdar=(1920/1080)*(1/1),colorspace=format=yuv420p10:range=tv:primaries=bt709:trc=bt709:space=bt709:fast=0[main];[1:v]settb=AVTB,setpts=PTS-STARTPTS,format=pix_fmts=yuv420p,fps=24000/1001,scale=1920:1080:flags=lanczos:param0=3:out_range=limited:out_color_matrix=bt709:out_chroma_loc=left,setsar=1.000,setdar=1.778,colorspace=format=yuv420p:range=tv:primaries=bt709:trc=bt709:space=bt709:fast=0[ref];[main][ref]ssim=eof_action=endall:stats_file='D\\:/Convert/FFMetrics/logs/ssim_logfile-6.txt'" -f null -
Input #0, matroska,webm, from 'F:\Convert\files\[DC] Make Heroine ga Oosugiru - 07_Telegram_HEVC(96).mkv':
  Metadata:
    COMPATIBLE_BRANDS: isomiso2avc1mp41
    MAJOR_BRAND     : isom
    MINOR_VERSION   : 512
    ENCODER         : Lavf61.7.100
  Duration: 00:24:06.79, start: -0.021000, bitrate: 976 kb/s
  Stream #0:0: Video: hevc (Main 10), yuv420p10le(tv, bt709, progressive), 1920x1080 [SAR 1:1 DAR 16:9], 23.98 fps, 23.98 tbr, 1k tbn (default)
      Metadata:
        HANDLER_NAME    : VideoHandler
        VENDOR_ID       : [0][0][0][0]
        ENCODER         : Lavc61.19.100 libx265
        BPS             : 779107
        DURATION        : 00:24:06.569708333
        NUMBER_OF_FRAMES: 34683
        NUMBER_OF_BYTES : 140879129
        _STATISTICS_WRITING_APP: mkvpropedit v94.0 ('Initiate') 64-bit
        _STATISTICS_WRITING_DATE_UTC: 2026-01-12 10:13:31
        _STATISTICS_TAGS: BPS DURATION NUMBER_OF_FRAMES NUMBER_OF_BYTES
  Stream #0:1: Audio: aac (LC), 48000 Hz, stereo, fltp (default)
      Metadata:
        HANDLER_NAME    : SoundHandler
        VENDOR_ID       : [0][0][0][0]
        ENCODER         : Lavc61.19.100 aac
        BPS             : 193194
        DURATION        : 00:24:06.784000000
        NUMBER_OF_FRAMES: 67819
        NUMBER_OF_BYTES : 34938755
        _STATISTICS_WRITING_APP: mkvpropedit v94.0 ('Initiate') 64-bit
        _STATISTICS_WRITING_DATE_UTC: 2026-01-12 10:13:31
        _STATISTICS_TAGS: BPS DURATION NUMBER_OF_FRAMES NUMBER_OF_BYTES
Input #1, mov,mp4,m4a,3gp,3g2,mj2, from 'F:\Convert\files\[DC] Make Heroine ga Oosugiru - 07_Telegram.mp4':
  Metadata:
    major_brand     : isom
    minor_version   : 512
    compatible_brands: isomiso2avc1mp41
    encoder         : Lavf60.16.100
  Duration: 00:24:06.74, start: 0.000000, bitrate: 3764 kb/s
  Stream #1:0[0x1](und): Video: h264 (High) (avc1 / 0x31637661), yuv420p(tv, bt709, progressive), 1920x1080 [SAR 1:1 DAR 16:9], 3616 kb/s, 23.98 fps, 23.98 tbr, 24k tbn (default)
      Metadata:
        handler_name    : VideoHandler
        vendor_id       : [0][0][0][0]
        encoder         : Lavc60.31.102 h264_qsv
  Stream #1:1[0x2](und): Audio: aac (HE-AACv2) (mp4a / 0x6134706D), 48000 Hz, stereo, fltp, 144 kb/s (default)
      Metadata:
        handler_name    : SoundHandler
        vendor_id       : [0][0][0][0]
Stream mapping:
  Stream #0:0 (hevc) -> settb:default
  Stream #1:0 (h264) -> settb:default
  ssim:default -> Stream #0:0 (wrapped_avframe)
  Stream #0:1 -> #0:1 (aac (native) -> pcm_s16le (native))
Output #0, null, to 'pipe:':
  Metadata:
    COMPATIBLE_BRANDS: isomiso2avc1mp41
    MAJOR_BRAND     : isom
    MINOR_VERSION   : 512
    encoder         : Lavf61.7.100
  Stream #0:0: Video: wrapped_avframe, yuv420p10le(tv, bt709, progressive), 1920x1080 [SAR 1:1 DAR 16:9], q=2-31, 200 kb/s, 23.98 fps, 23.98 tbn
      Metadata:
        encoder         : Lavc61.19.100 wrapped_avframe
  Stream #0:1: Audio: pcm_s16le, 48000 Hz, stereo, s16, 1536 kb/s (default)
      Metadata:
        HANDLER_NAME    : SoundHandler
        VENDOR_ID       : [0][0][0][0]
        _STATISTICS_TAGS: BPS DURATION NUMBER_OF_FRAMES NUMBER_OF_BYTES
        BPS             : 193194
        DURATION        : 00:24:06.784000000
        NUMBER_OF_FRAMES: 67819
        NUMBER_OF_BYTES : 34938755
        _STATISTICS_WRITING_APP: mkvpropedit v94.0 ('Initiate') 64-bit
        _STATISTICS_WRITING_DATE_UTC: 2026-01-12 10:13:31
        encoder         : Lavc61.19.100 pcm_s16le
frame=  117 fps=0.0 q=-0.0 size=N/A time=00:00:04.87 bitrate=N/A speed=9.47x    frame=  300 fps=289 q=-0.0 size=N/A time=00:00:12.51 bitrate=N/A speed=12.1x    frame=  486 fps=314 q=-0.0 size=N/A time=00:00:20.27 bitrate=N/A speed=13.1x    frame=  682 fps=331 q=-0.0 size=N/A time=00:00:28.44 bitrate=N/A speed=13.8x    frame=  877 fps=339 q=-0.0 size=N/A time=00:00:36.57 bitrate=N/A speed=14.1x    frame= 1019 fps=327 q=-0.0 size=N/A time=00:00:42.50 bitrate=N/A speed=13.6x    frame= 1184 fps=326 q=-0.0 size=N/A time=00:00:49.38 bitrate=N/A speed=13.6x    frame= 1347 fps=326 q=-0.0 size=N/A time=00:00:56.18 bitrate=N/A speed=13.6x    frame= 1513 fps=324 q=-0.0 size=N/A time=00:01:03.10 bitrate=N/A speed=13.5x    frame= 1664 fps=320 q=-0.0 size=N/A time=00:01:09.40 bitrate=N/A speed=13.4x    frame= 1830 fps=321 q=-0.0 size=N/A time=00:01:16.32 bitrate=N/A speed=13.4x    frame= 1996 fps=321 q=-0.0 size=N/A time=00:01:23.24 bitrate=N/A speed=13.4x    frame= 2115 fps=314 q=-0.0 size=N/A time=00:01:28.21 bitrate=N/A speed=13.1x    frame= 2273 fps=313 q=-0.0 size=N/A time=00:01:34.80 bitrate=N/A speed=13.1x    frame= 2423 fps=312 q=-0.0 size=N/A time=00:01:41.05 bitrate=N/A speed=  13x    frame= 2555 fps=309 q=-0.0 size=N/A time=00:01:46.56 bitrate=N/A speed=12.9x    frame= 2726 fps=310 q=-0.0 size=N/A time=00:01:53.69 bitrate=N/A speed=12.9x    frame= 2834 fps=304 q=-0.0 size=N/A time=00:01:58.20 bitrate=N/A speed=12.7x    frame= 2968 fps=302 q=-0.0 size=N/A time=00:02:03.79 bitrate=N/A speed=12.6x    frame= 3142 fps=304 q=-0.0 size=N/A time=00:02:11.04 bitrate=N/A speed=12.7x    frame= 3335 fps=307 q=-0.0 size=N/A time=00:02:19.09 bitrate=N/A speed=12.8x    frame= 3522 fps=309 q=-0.0 size=N/A time=00:02:26.89 bitrate=N/A speed=12.9x    frame= 3712 fps=312 q=-0.0 size=N/A time=00:02:34.82 bitrate=N/A speed=  13x    frame= 3861 fps=311 q=-0.0 size=N/A time=00:02:41.03 bitrate=N/A speed=  13x    frame= 3980 fps=308 q=-0.0 size=N/A time=00:02:45.99 bitrate=N/A speed=12.8x    frame= 4134 fps=308 q=-0.0 size=N/A time=00:02:52.42 bitrate=N/A speed=12.8x    frame= 4311 fps=309 q=-0.0 size=N/A time=00:02:59.80 bitrate=N/A speed=12.9x    frame= 4488 fps=310 q=-0.0 size=N/A time=00:03:07.18 bitrate=N/A speed=12.9x    frame= 4672 fps=312 q=-0.0 size=N/A time=00:03:14.86 bitrate=N/A speed=  13x    frame= 4862 fps=314 q=-0.0 size=N/A time=00:03:22.78 bitrate=N/A speed=13.1x    frame= 5055 fps=315 q=-0.0 size=N/A time=00:03:30.83 bitrate=N/A speed=13.2x    frame= 5235 fps=316 q=-0.0 size=N/A time=00:03:38.34 bitrate=N/A speed=13.2x    frame= 5422 fps=318 q=-0.0 size=N/A time=00:03:46.14 bitrate=N/A speed=13.3x    frame= 5610 fps=319 q=-0.0 size=N/A time=00:03:53.98 bitrate=N/A speed=13.3x    frame= 5795 fps=320 q=-0.0 size=N/A time=00:04:01.69 bitrate=N/A speed=13.4x    frame= 5986 fps=322 q=-0.0 size=N/A time=00:04:09.66 bitrate=N/A speed=13.4x    frame= 6174 fps=323 q=-0.0 size=N/A time=00:04:17.50 bitrate=N/A speed=13.5x    frame= 6353 fps=324 q=-0.0 size=N/A time=00:04:24.97 bitrate=N/A speed=13.5x    frame= 6547 fps=325 q=-0.0 size=N/A time=00:04:33.06 bitrate=N/A speed=13.5x    frame= 6736 fps=326 q=-0.0 size=N/A time=00:04:40.94 bitrate=N/A speed=13.6x    frame= 6930 fps=327 q=-0.0 size=N/A time=00:04:49.03 bitrate=N/A speed=13.6x    frame= 7113 fps=328 q=-0.0 size=N/A time=00:04:56.67 bitrate=N/A speed=13.7x    frame= 7299 fps=329 q=-0.0 size=N/A time=00:05:04.42 bitrate=N/A speed=13.7x    frame= 7480 fps=329 q=-0.0 size=N/A time=00:05:11.97 bitrate=N/A speed=13.7x    frame= 7649 fps=329 q=-0.0 size=N/A time=00:05:19.02 bitrate=N/A speed=13.7x    frame= 7836 fps=330 q=-0.0 size=N/A time=00:05:26.82 bitrate=N/A speed=13.8x    frame= 8013 fps=330 q=-0.0 size=N/A time=00:05:34.20 bitrate=N/A speed=13.8x    frame= 8202 fps=331 q=-0.0 size=N/A time=00:05:42.09 bitrate=N/A speed=13.8x    frame= 8370 fps=331 q=-0.0 size=N/A time=00:05:49.09 bitrate=N/A speed=13.8x    frame= 8546 fps=331 q=-0.0 size=N/A time=00:05:56.43 bitrate=N/A speed=13.8x    frame= 8718 fps=331 q=-0.0 size=N/A time=00:06:03.61 bitrate=N/A speed=13.8x    frame= 8909 fps=332 q=-0.0 size=N/A time=00:06:11.57 bitrate=N/A speed=13.8x    frame= 9090 fps=332 q=-0.0 size=N/A time=00:06:19.12 bitrate=N/A speed=13.8x    frame= 9280 fps=333 q=-0.0 size=N/A time=00:06:27.05 bitrate=N/A speed=13.9x    frame= 9455 fps=333 q=-0.0 size=N/A time=00:06:34.35 bitrate=N/A speed=13.9x    frame= 9632 fps=333 q=-0.0 size=N/A time=00:06:41.73 bitrate=N/A speed=13.9x    frame= 9802 fps=333 q=-0.0 size=N/A time=00:06:48.82 bitrate=N/A speed=13.9x    frame= 9988 fps=333 q=-0.0 size=N/A time=00:06:56.58 bitrate=N/A speed=13.9x    frame=10166 fps=334 q=-0.0 size=N/A time=00:07:04.00 bitrate=N/A speed=13.9x    frame=10358 fps=334 q=-0.0 size=N/A time=00:07:12.01 bitrate=N/A speed=13.9x    frame=10538 fps=335 q=-0.0 size=N/A time=00:07:19.52 bitrate=N/A speed=  14x    frame=10723 fps=335 q=-0.0 size=N/A time=00:07:27.23 bitrate=N/A speed=  14x    frame=10902 fps=335 q=-0.0 size=N/A time=00:07:34.70 bitrate=N/A speed=  14x    frame=11080 fps=335 q=-0.0 size=N/A time=00:07:42.12 bitrate=N/A speed=  14x    frame=11251 fps=335 q=-0.0 size=N/A time=00:07:49.26 bitrate=N/A speed=  14x    frame=11435 fps=336 q=-0.0 size=N/A time=00:07:56.93 bitrate=N/A speed=  14x    frame=11622 fps=336 q=-0.0 size=N/A time=00:08:04.73 bitrate=N/A speed=  14x    frame=11794 fps=336 q=-0.0 size=N/A time=00:08:11.90 bitrate=N/A speed=  14x    frame=11983 fps=336 q=-0.0 size=N/A time=00:08:19.79 bitrate=N/A speed=  14x    frame=12159 fps=336 q=-0.0 size=N/A time=00:08:27.13 bitrate=N/A speed=  14x    frame=12350 fps=337 q=-0.0 size=N/A time=00:08:35.09 bitrate=N/A speed=  14x    frame=12536 fps=337 q=-0.0 size=N/A time=00:08:42.85 bitrate=N/A speed=14.1x    frame=12720 fps=337 q=-0.0 size=N/A time=00:08:50.53 bitrate=N/A speed=14.1x    frame=12910 fps=338 q=-0.0 size=N/A time=00:08:58.45 bitrate=N/A speed=14.1x    frame=13094 fps=338 q=-0.0 size=N/A time=00:09:06.12 bitrate=N/A speed=14.1x    frame=13280 fps=338 q=-0.0 size=N/A time=00:09:13.88 bitrate=N/A speed=14.1x    frame=13463 fps=339 q=-0.0 size=N/A time=00:09:21.51 bitrate=N/A speed=14.1x    frame=13637 fps=339 q=-0.0 size=N/A time=00:09:28.77 bitrate=N/A speed=14.1x    frame=13816 fps=339 q=-0.0 size=N/A time=00:09:36.24 bitrate=N/A speed=14.1x    frame=13988 fps=339 q=-0.0 size=N/A time=00:09:43.41 bitrate=N/A speed=14.1x    frame=14162 fps=339 q=-0.0 size=N/A time=00:09:50.67 bitrate=N/A speed=14.1x    frame=14348 fps=339 q=-0.0 size=N/A time=00:09:58.43 bitrate=N/A speed=14.1x    frame=14531 fps=339 q=-0.0 size=N/A time=00:10:06.06 bitrate=N/A speed=14.1x    frame=14714 fps=339 q=-0.0 size=N/A time=00:10:13.69 bitrate=N/A speed=14.2x    frame=14879 fps=339 q=-0.0 size=N/A time=00:10:20.57 bitrate=N/A speed=14.1x    frame=15060 fps=339 q=-0.0 size=N/A time=00:10:28.12 bitrate=N/A speed=14.1x    frame=15222 fps=339 q=-0.0 size=N/A time=00:10:34.88 bitrate=N/A speed=14.1x    frame=15383 fps=339 q=-0.0 size=N/A time=00:10:41.59 bitrate=N/A speed=14.1x    frame=15571 fps=339 q=-0.0 size=N/A time=00:10:49.44 bitrate=N/A speed=14.1x    frame=15756 fps=339 q=-0.0 size=N/A time=00:10:57.15 bitrate=N/A speed=14.1x    frame=15944 fps=339 q=-0.0 size=N/A time=00:11:04.99 bitrate=N/A speed=14.2x    frame=16132 fps=340 q=-0.0 size=N/A time=00:11:12.83 bitrate=N/A speed=14.2x    frame=16306 fps=340 q=-0.0 size=N/A time=00:11:20.09 bitrate=N/A speed=14.2x    frame=16475 fps=340 q=-0.0 size=N/A time=00:11:27.14 bitrate=N/A speed=14.2x    frame=16665 fps=340 q=-0.0 size=N/A time=00:11:35.06 bitrate=N/A speed=14.2x    frame=16847 fps=340 q=-0.0 size=N/A time=00:11:42.66 bitrate=N/A speed=14.2x    frame=17036 fps=340 q=-0.0 size=N/A time=00:11:50.54 bitrate=N/A speed=14.2x    frame=17213 fps=340 q=-0.0 size=N/A time=00:11:57.92 bitrate=N/A speed=14.2x    frame=17400 fps=341 q=-0.0 size=N/A time=00:12:05.72 bitrate=N/A speed=14.2x    frame=17591 fps=341 q=-0.0 size=N/A time=00:12:13.69 bitrate=N/A speed=14.2x    frame=17769 fps=341 q=-0.0 size=N/A time=00:12:21.11 bitrate=N/A speed=14.2x    frame=17955 fps=341 q=-0.0 size=N/A time=00:12:28.87 bitrate=N/A speed=14.2x    frame=18133 fps=341 q=-0.0 size=N/A time=00:12:36.29 bitrate=N/A speed=14.2x    frame=18310 fps=341 q=-0.0 size=N/A time=00:12:43.67 bitrate=N/A speed=14.2x    frame=18491 fps=341 q=-0.0 size=N/A time=00:12:51.22 bitrate=N/A speed=14.2x    frame=18677 fps=341 q=-0.0 size=N/A time=00:12:58.98 bitrate=N/A speed=14.2x    frame=18861 fps=342 q=-0.0 size=N/A time=00:13:06.70 bitrate=N/A speed=14.2x    frame=19057 fps=342 q=-0.0 size=N/A time=00:13:14.83 bitrate=N/A speed=14.3x    frame=19244 fps=342 q=-0.0 size=N/A time=00:13:22.63 bitrate=N/A speed=14.3x    frame=19432 fps=342 q=-0.0 size=N/A time=00:13:30.47 bitrate=N/A speed=14.3x    frame=19638 fps=343 q=-0.0 size=N/A time=00:13:39.06 bitrate=N/A speed=14.3x    frame=19822 fps=343 q=-0.0 size=N/A time=00:13:46.74 bitrate=N/A speed=14.3x    frame=20014 fps=343 q=-0.0 size=N/A time=00:13:54.75 bitrate=N/A speed=14.3x    frame=20215 fps=344 q=-0.0 size=N/A time=00:14:03.13 bitrate=N/A speed=14.3x    frame=20397 fps=344 q=-0.0 size=N/A time=00:14:10.72 bitrate=N/A speed=14.3x    frame=20580 fps=344 q=-0.0 size=N/A time=00:14:18.35 bitrate=N/A speed=14.3x    frame=20764 fps=344 q=-0.0 size=N/A time=00:14:26.03 bitrate=N/A speed=14.3x    frame=20951 fps=344 q=-0.0 size=N/A time=00:14:33.83 bitrate=N/A speed=14.4x    frame=21111 fps=344 q=-0.0 size=N/A time=00:14:40.50 bitrate=N/A speed=14.3x    frame=21277 fps=344 q=-0.0 size=N/A time=00:14:47.42 bitrate=N/A speed=14.3x    frame=21441 fps=343 q=-0.0 size=N/A time=00:14:54.26 bitrate=N/A speed=14.3x    frame=21598 fps=343 q=-0.0 size=N/A time=00:15:00.81 bitrate=N/A speed=14.3x    frame=21744 fps=343 q=-0.0 size=N/A time=00:15:06.90 bitrate=N/A speed=14.3x    frame=21862 fps=342 q=-0.0 size=N/A time=00:15:11.82 bitrate=N/A speed=14.3x    frame=22009 fps=341 q=-0.0 size=N/A time=00:15:17.95 bitrate=N/A speed=14.2x    frame=22171 fps=341 q=-0.0 size=N/A time=00:15:24.71 bitrate=N/A speed=14.2x    frame=22325 fps=341 q=-0.0 size=N/A time=00:15:31.13 bitrate=N/A speed=14.2x    frame=22474 fps=340 q=-0.0 size=N/A time=00:15:37.35 bitrate=N/A speed=14.2x    frame=22623 fps=340 q=-0.0 size=N/A time=00:15:43.56 bitrate=N/A speed=14.2x    frame=22777 fps=340 q=-0.0 size=N/A time=00:15:49.99 bitrate=N/A speed=14.2x    frame=22904 fps=339 q=-0.0 size=N/A time=00:15:55.28 bitrate=N/A speed=14.1x    frame=23059 fps=339 q=-0.0 size=N/A time=00:16:01.75 bitrate=N/A speed=14.1x    frame=23201 fps=338 q=-0.0 size=N/A time=00:16:07.67 bitrate=N/A speed=14.1x    frame=23352 fps=338 q=-0.0 size=N/A time=00:16:13.97 bitrate=N/A speed=14.1x    frame=23481 fps=337 q=-0.0 size=N/A time=00:16:19.35 bitrate=N/A speed=14.1x    frame=23588 fps=336 q=-0.0 size=N/A time=00:16:23.81 bitrate=N/A speed=  14x    frame=23694 fps=335 q=-0.0 size=N/A time=00:16:28.23 bitrate=N/A speed=  14x    frame=23751 fps=334 q=-0.0 size=N/A time=00:16:30.61 bitrate=N/A speed=13.9x    frame=23827 fps=332 q=-0.0 size=N/A time=00:16:33.78 bitrate=N/A speed=13.9x    frame=23905 fps=331 q=-0.0 size=N/A time=00:16:37.03 bitrate=N/A speed=13.8x    frame=24063 fps=331 q=-0.0 size=N/A time=00:16:43.62 bitrate=N/A speed=13.8x    frame=24207 fps=330 q=-0.0 size=N/A time=00:16:49.63 bitrate=N/A speed=13.8x    frame=24358 fps=330 q=-0.0 size=N/A time=00:16:55.93 bitrate=N/A speed=13.8x    frame=24487 fps=330 q=-0.0 size=N/A time=00:17:01.31 bitrate=N/A speed=13.7x    frame=24637 fps=329 q=-0.0 size=N/A time=00:17:07.56 bitrate=N/A speed=13.7x    frame=24769 fps=329 q=-0.0 size=N/A time=00:17:13.07 bitrate=N/A speed=13.7x    frame=24890 fps=328 q=-0.0 size=N/A time=00:17:18.12 bitrate=N/A speed=13.7x    frame=25022 fps=328 q=-0.0 size=N/A time=00:17:23.62 bitrate=N/A speed=13.7x    frame=25129 fps=327 q=-0.0 size=N/A time=00:17:28.08 bitrate=N/A speed=13.6x    frame=25288 fps=327 q=-0.0 size=N/A time=00:17:34.72 bitrate=N/A speed=13.6x    frame=25455 fps=327 q=-0.0 size=N/A time=00:17:41.68 bitrate=N/A speed=13.6x    frame=25584 fps=326 q=-0.0 size=N/A time=00:17:47.06 bitrate=N/A speed=13.6x    frame=25686 fps=325 q=-0.0 size=N/A time=00:17:51.32 bitrate=N/A speed=13.6x    frame=25804 fps=325 q=-0.0 size=N/A time=00:17:56.24 bitrate=N/A speed=13.5x    frame=25948 fps=324 q=-0.0 size=N/A time=00:18:02.24 bitrate=N/A speed=13.5x    frame=26088 fps=324 q=-0.0 size=N/A time=00:18:08.08 bitrate=N/A speed=13.5x    frame=26238 fps=324 q=-0.0 size=N/A time=00:18:14.34 bitrate=N/A speed=13.5x    frame=26401 fps=324 q=-0.0 size=N/A time=00:18:21.14 bitrate=N/A speed=13.5x    frame=26585 fps=324 q=-0.0 size=N/A time=00:18:28.81 bitrate=N/A speed=13.5x    frame=26761 fps=324 q=-0.0 size=N/A time=00:18:36.15 bitrate=N/A speed=13.5x    frame=26935 fps=324 q=-0.0 size=N/A time=00:18:43.41 bitrate=N/A speed=13.5x    frame=27106 fps=324 q=-0.0 size=N/A time=00:18:50.54 bitrate=N/A speed=13.5x    frame=27285 fps=324 q=-0.0 size=N/A time=00:18:58.01 bitrate=N/A speed=13.5x    frame=27466 fps=325 q=-0.0 size=N/A time=00:19:05.56 bitrate=N/A speed=13.5x    frame=27642 fps=325 q=-0.0 size=N/A time=00:19:12.90 bitrate=N/A speed=13.5x    frame=27828 fps=325 q=-0.0 size=N/A time=00:19:20.65 bitrate=N/A speed=13.6x    frame=28011 fps=325 q=-0.0 size=N/A time=00:19:28.29 bitrate=N/A speed=13.6x    frame=28192 fps=325 q=-0.0 size=N/A time=00:19:35.84 bitrate=N/A speed=13.6x    frame=28389 fps=326 q=-0.0 size=N/A time=00:19:44.05 bitrate=N/A speed=13.6x    frame=28581 fps=326 q=-0.0 size=N/A time=00:19:52.06 bitrate=N/A speed=13.6x    frame=28767 fps=326 q=-0.0 size=N/A time=00:19:59.82 bitrate=N/A speed=13.6x    frame=28942 fps=326 q=-0.0 size=N/A time=00:20:07.12 bitrate=N/A speed=13.6x    frame=29120 fps=326 q=-0.0 size=N/A time=00:20:14.54 bitrate=N/A speed=13.6x    frame=29297 fps=326 q=-0.0 size=N/A time=00:20:21.92 bitrate=N/A speed=13.6x    frame=29475 fps=326 q=-0.0 size=N/A time=00:20:29.35 bitrate=N/A speed=13.6x    frame=29650 fps=327 q=-0.0 size=N/A time=00:20:36.65 bitrate=N/A speed=13.6x    frame=29826 fps=327 q=-0.0 size=N/A time=00:20:43.99 bitrate=N/A speed=13.6x    frame=29996 fps=327 q=-0.0 size=N/A time=00:20:51.08 bitrate=N/A speed=13.6x    frame=30179 fps=327 q=-0.0 size=N/A time=00:20:58.71 bitrate=N/A speed=13.6x    frame=30352 fps=327 q=-0.0 size=N/A time=00:21:05.93 bitrate=N/A speed=13.6x    frame=30553 fps=327 q=-0.0 size=N/A time=00:21:14.31 bitrate=N/A speed=13.6x    frame=30740 fps=327 q=-0.0 size=N/A time=00:21:22.11 bitrate=N/A speed=13.7x    frame=30942 fps=328 q=-0.0 size=N/A time=00:21:30.53 bitrate=N/A speed=13.7x    frame=31131 fps=328 q=-0.0 size=N/A time=00:21:38.42 bitrate=N/A speed=13.7x    frame=31319 fps=328 q=-0.0 size=N/A time=00:21:46.26 bitrate=N/A speed=13.7x    frame=31493 fps=328 q=-0.0 size=N/A time=00:21:53.52 bitrate=N/A speed=13.7x    frame=31647 fps=328 q=-0.0 size=N/A time=00:21:59.94 bitrate=N/A speed=13.7x    frame=31794 fps=328 q=-0.0 size=N/A time=00:22:06.07 bitrate=N/A speed=13.7x    frame=31931 fps=327 q=-0.0 size=N/A time=00:22:11.78 bitrate=N/A speed=13.7x    frame=32078 fps=327 q=-0.0 size=N/A time=00:22:17.91 bitrate=N/A speed=13.7x    frame=32244 fps=327 q=-0.0 size=N/A time=00:22:24.84 bitrate=N/A speed=13.6x    frame=32415 fps=327 q=-0.0 size=N/A time=00:22:31.97 bitrate=N/A speed=13.6x    frame=32598 fps=327 q=-0.0 size=N/A time=00:22:39.60 bitrate=N/A speed=13.7x    frame=32738 fps=327 q=-0.0 size=N/A time=00:22:45.44 bitrate=N/A speed=13.6x    frame=32898 fps=327 q=-0.0 size=N/A time=00:22:52.12 bitrate=N/A speed=13.6x    frame=33082 fps=327 q=-0.0 size=N/A time=00:22:59.79 bitrate=N/A speed=13.6x    frame=33256 fps=327 q=-0.0 size=N/A time=00:23:07.05 bitrate=N/A speed=13.6x    frame=33434 fps=327 q=-0.0 size=N/A time=00:23:14.47 bitrate=N/A speed=13.7x    frame=33582 fps=327 q=-0.0 size=N/A time=00:23:20.64 bitrate=N/A speed=13.6x    frame=33736 fps=327 q=-0.0 size=N/A time=00:23:27.07 bitrate=N/A speed=13.6x    frame=33862 fps=327 q=-0.0 size=N/A time=00:23:32.32 bitrate=N/A speed=13.6x    frame=34019 fps=326 q=-0.0 size=N/A time=00:23:38.87 bitrate=N/A speed=13.6x    frame=34180 fps=326 q=-0.0 size=N/A time=00:23:45.59 bitrate=N/A speed=13.6x    frame=34327 fps=326 q=-0.0 size=N/A time=00:23:51.72 bitrate=N/A speed=13.6x    frame=34462 fps=326 q=-0.0 size=N/A time=00:23:57.35 bitrate=N/A speed=13.6x    frame=34646 fps=326 q=-0.0 size=N/A time=00:24:05.02 bitrate=N/A speed=13.6x    [Parsed_ssim_16 @ 0000015af56a4140] SSIM Y:0.994163 (22.337875) U:0.993992 (22.212592) V:0.993597 (21.936070) All:0.994040 (22.247475)
[out#0/null @ 0000015aec368a00] video:14903KiB audio:271276KiB subtitle:0KiB other streams:0KiB global headers:0KiB muxing overhead: unknown
frame=34683 fps=326 q=-0.0 Lsize=N/A time=00:24:06.57 bitrate=N/A speed=13.6x    
